# xmcd CD database file
#
# Track frame offsets:
#	183
#	13775
#	25988
#	35708
#	46280
#	61143
#	72775
#	86355
#	99540
#	112208
#	124803
#	137103
#	149395
#	161773
#	172983
#	183395
#
# Disc length: 2622 seconds
#
# Revision: 0
# Processed by: cddbd v1.5.2PL0 Copyright (c) Steve Scherf et al.
# Submitted via: CDex 1.70beta2
#
DISCID=e10a3c10
DTITLE=Various Artist - Jukebox '50, Vol. 4. Country
DYEAR=1900
DGENRE=Country
TTITLE0=Pee Wee King and His Golden West Cowboys - Slow Poke
TTITLE1=Weavers and Terry Gilkyson - On Top Of Old Smoky
TTITLE2=Del Wood - Down Yonder
TTITLE3=Phil Harris - The Thing
TTITLE4=Weavers And Gordon Jenkins and His Orchestra - Goodnight Irene
TTITLE5=Tennessee Ernie Ford - Shotgun Boogie
TTITLE6=Webb Pierce - Wondering
TTITLE7=Kitty Wells and Red Foley - One By One
TTITLE8=Jimmy Reeves - Bimbo
TTITLE9=Hank Snow - I'm Moving On
TTITLE10=Lefty Frizzell - I Want To Be With You Always
TTITLE11=Johnny Cash - I Walk The Line
TTITLE12=Hank Williams - Cold, Cold Heart
TTITLE13=Lonnie Donegan - Rock Island Line
TTITLE14=Gaylords - The Little Shoemaker
TTITLE15=Hank Snow - I Don't Hurt Anymore
EXTD=
EXTT0=
EXTT1=
EXTT2=
EXTT3=
EXTT4=
EXTT5=
EXTT6=
EXTT7=
EXTT8=
EXTT9=
EXTT10=
EXTT11=
EXTT12=
EXTT13=
EXTT14=
EXTT15=
PLAYORDER=
